<svg xmlns="http://www.w3.org/2000/svg" viewBox="0 0 130 120"><defs><style>.cls-1{fill:#fff;}</style></defs><title>heart-open</title><g id="Ebene_2" data-name="Ebene 2"><g id="Ebene_1-2" data-name="Ebene 1"><path class="cls-1" d="M36.4,10a22.11,22.11,0,0,1,15.83,6.78l5.64,5.86L65,30.06l7.2-7.37,3.94-4a25,25,0,0,1,36.24.12A27.64,27.64,0,0,1,112.28,57l-4,4L64.77,105.64,21.51,60.74l-3.92-4.07a27.45,27.45,0,0,1-6.83-25.52c1.29-5.46,5.42-15.31,18.56-19.94A21.33,21.33,0,0,1,36.4,10m0-10A31.2,31.2,0,0,0,26,1.78C-2.26,11.74-7.51,45,10.39,63.61l3.92,4.07L64.72,120l50.77-52,3.94-4a37.68,37.68,0,0,0,.18-52.15A35,35,0,0,0,69,11.66l-4,4L59.43,9.85A32,32,0,0,0,36.4,0Z"/></g></g></svg>